<svg width="45" height="56" viewBox="0 0 45 56" fill="none" xmlns="http://www.w3.org/2000/svg">
<g clip-path="url(#clip0_301_2)">
<path d="M21.0316 55.0933C32.6471 55.0933 42.0633 53.3904 42.0633 51.2897C42.0633 49.1891 32.6471 47.4861 21.0316 47.4861C9.41619 47.4861 0 49.1891 0 51.2897C0 53.3904 9.41619 55.0933 21.0316 55.0933Z" fill="#E6E6E6"/>
<path d="M42.6847 33.3829C42.4657 36.6752 40.1578 38.2534 38.2257 38.9981C36.9845 39.4583 35.6826 39.735 34.3614 39.8197L34.0359 39.0218L34.0063 38.9479L37.3854 37.6357L37.4741 37.6859C37.9602 37.9305 38.5079 38.0262 39.0483 37.9608L39.0157 37.943C38.9288 37.901 38.8456 37.8515 38.7672 37.7953L38.7376 37.7746C38.3693 37.4973 38.0795 37.1293 37.8964 36.7066C37.7133 36.2839 37.6432 35.8209 37.6931 35.363C37.8055 33.9946 38.8086 33.1376 39.6341 32.7356C39.7318 32.7149 39.8324 32.7002 39.93 32.6883C40.9008 32.5978 41.8733 32.8429 42.6847 33.3829Z" fill="#143FFD"/>
<path d="M18.7744 45.5591V45.6359H18.7505L18.7684 45.5591H18.7744Z" fill="black"/>
<path d="M30.6333 35.4016L30.7317 35.3809L30.6333 35.4016Z" fill="black"/>
<path d="M44.6997 34.6213C44.3741 33.7504 43.7433 33.0269 42.9244 32.585C41.3798 31.6984 39.2435 31.6127 37.8469 32.8303C36.8439 33.6726 36.1722 35.2922 36.5776 36.5926C35.6899 37.2989 34.1424 37.8397 33.6424 38.0023L32.4174 34.9789C36.5894 33.7967 40.291 31.2108 41.294 26.6506C41.7459 24.5048 41.6882 22.283 41.1254 20.1635L41.1047 20.0807C40.918 19.3556 40.6858 18.6429 40.4093 17.9469C39.7578 16.2739 38.9053 14.6861 37.8706 13.2183C37.9517 10.7679 37.728 8.31683 37.2048 5.92139C36.7864 4.1392 36.1845 2.405 35.4088 0.746479C35.2791 0.470751 35.0455 0.257374 34.7591 0.152765C34.4726 0.0481567 34.1563 0.0607966 33.8791 0.187922C31.6137 1.2365 29.5191 2.61932 27.6655 4.29002C27.0502 3.98943 26.4144 3.73264 25.7629 3.52161C22.1371 2.3585 18.2032 2.62497 14.7678 4.26637C12.9211 2.6042 10.8344 1.2293 8.57779 0.187922C8.30101 0.0609194 7.9852 0.0483642 7.6992 0.153C7.41319 0.257635 7.18021 0.47096 7.05104 0.746479C5.28317 4.52123 4.43453 8.66022 4.57447 12.8252H4.60997C3.6498 14.1042 2.84616 15.4932 2.21622 16.9628C1.83761 17.8347 1.52799 18.7349 1.29013 19.6552C1.29013 19.6847 1.29011 19.7143 1.26644 19.7438C0.693381 21.9186 0.629594 24.196 1.08003 26.3994C2.06829 30.9832 5.55978 33.7199 9.79688 34.9966L7.4771 40.7242C6.91196 40.9725 5.04786 41.9064 4.29335 43.6146C3.89391 44.5219 3.83768 45.9435 4.14245 47.4182C4.25193 47.9383 4.65139 49.6081 5.4562 50.1726C5.4562 50.2111 5.45618 50.2465 5.43547 50.2849C5.36088 50.8494 5.4721 51.4227 5.75231 51.9185C6.03252 52.4143 6.46651 52.8056 6.98888 53.0334C7.57389 53.3045 8.19794 53.4821 8.83817 53.5595C9.46856 53.6437 10.1074 53.6437 10.7378 53.5595C11.6325 53.4596 12.4807 53.1092 13.1848 52.5487C13.4648 52.9159 13.8305 53.2091 14.25 53.4029C15.4335 53.9792 16.9544 54.1151 18.135 53.4354C18.5251 53.1988 18.8289 52.8435 19.0019 52.4217H23.2597C23.6917 53.4472 24.8042 53.8285 25.8635 53.8403C26.663 53.834 27.4485 53.631 28.1507 53.2492C28.4767 53.0592 28.7615 52.806 28.9881 52.5044C30.1716 53.5388 31.8789 53.7664 33.3997 53.5595C34.04 53.4821 34.664 53.3045 35.249 53.0334C35.772 52.8064 36.2066 52.4152 36.4869 51.9192C36.7673 51.4233 36.878 50.8495 36.8024 50.2849C36.8024 50.2465 36.8025 50.2111 36.7818 50.1726C37.5836 49.6081 37.986 47.9383 38.0925 47.4182C38.3884 45.9405 38.344 44.5219 37.9416 43.6146C37.7485 43.1815 37.4867 42.7824 37.1664 42.4324L37.3232 42.4117C37.5599 42.3704 37.915 42.3201 38.1547 42.2669C39.8353 41.9271 41.5071 41.3449 42.8445 40.2366C43.4558 39.7456 43.9575 39.1322 44.3173 38.4359C44.677 37.7396 44.8869 36.9758 44.9335 36.1936C44.9335 36.1433 44.9335 36.0931 44.9335 36.0399C44.9305 35.5577 44.8516 35.079 44.6997 34.6213ZM3.99747 30.3951C3.04597 29.167 2.37809 27.744 2.04166 26.228C2.02095 26.1364 2.00321 26.0418 1.98249 25.9502C1.92924 25.6812 1.88779 25.4123 1.85229 25.1404C1.85229 25.0488 1.83158 24.9572 1.8227 24.8655C1.79016 24.57 1.76945 24.2479 1.75762 23.9375C1.75762 23.8459 1.75762 23.7543 1.75762 23.6627C1.75762 23.2814 1.75761 22.8972 1.78424 22.513C1.8293 21.8184 1.91925 21.1273 2.0535 20.4443C2.0535 20.4147 2.05348 20.3851 2.06828 20.3556C2.65451 17.6789 3.71143 15.1273 5.1899 12.8193C5.23724 12.7395 5.28754 12.6597 5.33784 12.5829C5.76392 11.9032 6.22551 11.2411 6.67822 10.5969C6.19944 11.014 5.74869 11.4622 5.32896 11.9386C5.33313 8.1916 6.15718 4.49079 7.7434 1.09523C7.78447 1.00846 7.85821 0.941418 7.94856 0.908752C8.03891 0.876086 8.13855 0.880439 8.2257 0.920855C10.3216 1.88819 12.2668 3.15232 14.0014 4.67422C13.5555 4.92768 13.1247 5.20695 12.7114 5.5106L12.9066 5.46626C15.6662 4.18367 18.684 3.5517 21.727 3.61914C24.3773 3.7185 26.9817 4.34022 29.3905 5.44853C29.4793 5.46922 29.5651 5.49582 29.6509 5.51946C29.2479 5.22107 28.8269 4.94767 28.3904 4.70081C29.35 3.85453 30.3761 3.08662 31.4587 2.40447C32.338 1.85494 33.2512 1.36139 34.1927 0.926772C34.2799 0.886355 34.3795 0.882002 34.4699 0.914668C34.5602 0.947334 34.634 1.01436 34.675 1.10113C36.3035 4.58596 37.1276 8.39158 37.0865 12.2371C36.6005 11.6333 36.0756 11.0617 35.5153 10.5259C37.125 12.9789 38.6014 15.4821 39.5719 18.2454C39.849 19.0326 40.0734 19.8372 40.2436 20.6541C40.2436 20.6836 40.2436 20.7102 40.2614 20.7398C40.2791 20.7693 40.288 20.8698 40.2999 20.9378C40.3117 21.0058 40.3206 21.0442 40.3294 21.0974C40.6478 22.7439 40.6618 24.4346 40.3709 26.0861C40.3531 26.1777 40.3353 26.2664 40.3146 26.358C40.3146 26.358 40.3146 26.358 40.3146 26.3757C40.1416 27.1704 39.8734 27.9414 39.5157 28.6721C37.7878 32.1358 34.2253 34.0952 30.5711 35.0853L30.1213 35.2035C29.8905 35.3395 29.642 35.4754 29.3787 35.6114C26.885 36.9029 24.1188 37.5818 21.3098 37.5915H21.2447C18.5083 37.5927 15.8092 36.9561 13.3623 35.7325C13.1463 35.6261 12.9392 35.5168 12.7439 35.4074C12.448 35.3395 12.1521 35.2656 11.8562 35.1887C8.83228 34.3612 5.92073 32.8983 3.99747 30.3951ZM37.1901 43.922C37.8972 45.5297 37.1398 48.559 36.4533 49.3717C36.3885 49.2616 36.3164 49.1559 36.2373 49.0555C36.2202 49.0325 36.2014 49.0108 36.1811 48.9905L36.0805 48.8752C35.967 48.7638 35.8421 48.6647 35.7077 48.5797C35.6262 48.5291 35.54 48.4865 35.4503 48.4526C35.5559 48.6638 35.6469 48.882 35.7225 49.1057C36.0598 50.146 36.0627 50.9913 35.5568 51.5912C35.5337 51.6211 35.509 51.6497 35.4828 51.6769C35.4184 51.745 35.3481 51.8073 35.2727 51.8631C35.2727 51.807 35.2461 51.7479 35.2313 51.6917C35.2258 51.6648 35.2189 51.6381 35.2106 51.6119C35.1168 51.2442 34.9586 50.8959 34.7431 50.5834C34.6223 50.4138 34.4632 50.2751 34.2786 50.1785C34.4157 50.3179 34.5172 50.4882 34.5744 50.675C34.661 50.9854 34.695 51.308 34.675 51.6296C34.675 51.6562 34.675 51.6828 34.675 51.7094C34.6629 51.885 34.6402 52.0597 34.607 52.2325C34.4781 52.2825 34.3467 52.3259 34.2134 52.3626C33.8803 52.447 33.5424 52.5111 33.2015 52.5547C33.1423 52.3833 33.0772 52.2118 33.0003 52.0434C32.937 51.9049 32.8649 51.7707 32.7843 51.6415L32.7192 51.5469C32.6248 51.4111 32.5002 51.2988 32.3553 51.2188C32.4266 51.3005 32.48 51.3961 32.5121 51.4996L32.5387 51.5882L32.5565 51.6592C32.6177 51.9725 32.6346 52.2928 32.6068 52.6108C31.4889 52.7124 30.3696 52.4321 29.4319 51.8158C29.7199 51.3234 29.9673 50.8085 30.1716 50.2761L30.2042 50.1963C30.29 49.9776 30.3728 49.7559 30.4557 49.5343C30.6658 48.9432 30.8551 48.3521 31.0297 47.761C31.0297 47.7315 31.0297 47.7019 31.0534 47.6724C31.1688 47.2763 31.2753 46.8774 31.3789 46.4902C31.6497 45.4662 31.865 44.4283 32.0239 43.3811C32.2016 42.3345 32.2878 41.2745 32.2813 40.2129C31.8582 41.4453 31.5239 42.7516 31.0978 43.9899C31.0386 44.1732 30.9202 44.5544 30.867 44.7376C30.5711 45.8459 30.2752 46.9631 29.9408 48.0595L29.9142 48.1393C29.6715 48.9243 29.382 49.6941 29.0473 50.4445L28.9674 50.6189C28.6715 51.2513 28.3223 51.9074 27.7838 52.3271C27.7014 52.3845 27.6131 52.4331 27.5205 52.4719L27.3962 52.531C27.4185 52.2248 27.3946 51.917 27.3252 51.6178V51.5676L27.2986 51.4907C27.2476 51.335 27.1639 51.1919 27.053 51.071C27.1172 51.2193 27.1494 51.3795 27.1477 51.541C27.1491 51.5695 27.1491 51.5981 27.1477 51.6267C27.1026 52.0207 26.981 52.4022 26.7896 52.7497C26.3725 52.8731 25.9361 52.9182 25.5025 52.8827C25.5333 52.5405 25.5194 52.1958 25.4611 51.8572C25.4611 51.8306 25.4611 51.804 25.4463 51.7774C25.4449 51.7666 25.4449 51.7557 25.4463 51.7449C25.4109 51.5717 25.3326 51.4102 25.2185 51.275C25.2679 51.4307 25.278 51.5962 25.2481 51.7567C25.2481 51.7833 25.2481 51.807 25.2333 51.8336C25.1605 52.1507 25.0482 52.4575 24.8989 52.7468H24.8723C24.6849 52.6924 24.5127 52.5952 24.3695 52.4628C24.2262 52.3305 24.1157 52.1667 24.0468 51.9843C24.0202 51.9122 23.9994 51.8381 23.9846 51.7626C23.9846 51.7154 23.9639 51.671 23.9551 51.6208L23.9373 51.5351C23.6745 50.1977 23.5486 48.8371 23.5615 47.4743C23.5615 47.4448 23.5615 47.4152 23.5615 47.3857C23.5615 47.2763 23.5615 47.167 23.5615 47.0576C23.5672 46.5823 23.5295 46.1075 23.4491 45.639C23.4491 45.6154 23.4491 45.5888 23.4491 45.5622L23.4313 45.4706H23.4136L23.3603 45.5622C23.3603 45.5888 23.3307 45.6154 23.3189 45.642C22.9791 46.3762 22.8179 47.1803 22.8484 47.9886V48.225C22.8484 48.3521 22.8484 48.4821 22.8484 48.6092V48.689C22.8563 49.6788 22.9374 50.6666 23.0911 51.6444H19.2031C19.3504 50.6474 19.4226 49.6407 19.4191 48.6329C19.4191 48.6151 19.4191 48.5944 19.4191 48.5737V48.491C19.4191 48.3757 19.4191 48.2634 19.4191 48.1482C19.4206 48.1206 19.4206 48.093 19.4191 48.0654C19.3984 47.1788 19.3185 46.2922 18.8687 45.4795C18.8614 45.5027 18.8555 45.5264 18.851 45.5504V45.6302H18.8303C18.7335 46.1037 18.6879 46.5862 18.6942 47.0695C18.6942 47.1108 18.6942 47.1522 18.6942 47.1965C18.6957 47.2241 18.6957 47.2517 18.6942 47.2793C18.7155 48.732 18.5786 50.1828 18.2859 51.606L18.2681 51.7035C18.2617 51.7268 18.2568 51.7505 18.2533 51.7744C18.2385 51.8518 18.2178 51.9279 18.1912 52.002C18.1227 52.1925 18.0101 52.3641 17.8625 52.5028C17.7149 52.6415 17.5365 52.7433 17.342 52.8C17.1839 52.5052 17.0646 52.1913 16.9869 51.8661C16.9869 51.8365 16.9869 51.8099 16.9869 51.7833C16.9584 51.6179 16.9675 51.4482 17.0135 51.2868C16.9041 51.4257 16.8273 51.5873 16.7887 51.7597C16.7796 51.7845 16.7737 51.8103 16.7709 51.8365C16.7038 52.201 16.6898 52.5733 16.7295 52.9418C16.3116 52.9868 15.889 52.9528 15.4838 52.8414C15.2099 52.409 15.0717 51.9046 15.0873 51.3932C15.0859 51.3666 15.0859 51.34 15.0873 51.3134C15.1037 51.2297 15.1275 51.1477 15.1583 51.0681C15.1014 51.1334 15.0518 51.2048 15.0104 51.2809C14.9962 51.3033 14.9843 51.3271 14.9749 51.3518C14.8085 51.7503 14.7503 52.1856 14.8062 52.6138L14.6464 52.5399C13.9807 52.2651 13.38 51.2868 12.8711 50.0928L12.7942 49.9155C12.6019 49.4426 12.4184 48.9432 12.2527 48.4378L12.2231 48.3491C11.7586 46.9305 11.4124 45.5179 11.2171 44.7524C11.1195 44.3712 10.9212 43.6146 10.8177 43.2363C10.575 42.3497 10.2466 41.0552 9.93001 40.2011C9.92072 40.5954 9.93158 40.99 9.96256 41.3833C10.0129 42.0423 10.072 42.7073 10.143 43.3634C10.2328 44.4225 10.42 45.4712 10.7023 46.4961C10.7822 46.7917 10.8768 47.1404 10.9982 47.5246L11.0218 47.6073C11.2897 48.5763 11.6148 49.5286 11.9953 50.4593C12.0074 50.4834 12.0182 50.508 12.0278 50.5332C12.2222 50.9894 12.4476 51.4317 12.7025 51.8572C11.7797 52.4303 10.6959 52.6895 9.61339 52.596C9.57621 52.2673 9.59422 51.9347 9.66667 51.6119C9.66667 51.5853 9.66666 51.5557 9.69033 51.5292C9.72934 51.4116 9.78843 51.3016 9.86493 51.2041C9.71059 51.2941 9.57819 51.4173 9.4773 51.5646C9.45591 51.592 9.43616 51.6206 9.41813 51.6503C9.2496 51.9283 9.11639 52.2261 9.02162 52.537C8.68095 52.4907 8.34314 52.4256 8.00971 52.3419C7.8749 52.3071 7.74247 52.2636 7.61323 52.2119C7.61323 52.1616 7.59546 52.1114 7.58954 52.0641C7.56883 51.8897 7.54814 51.7094 7.53926 51.5262V51.4434C7.51659 51.2138 7.53965 50.982 7.6072 50.7613C7.67475 50.5407 7.78542 50.3355 7.93278 50.1578C7.51356 50.4232 7.21023 50.837 7.08358 51.3164C7.07435 51.3406 7.06647 51.3652 7.05992 51.3903C7.01161 51.5378 6.97111 51.6877 6.9386 51.8395C6.68271 51.6515 6.48482 51.3955 6.36752 51.1006C6.3526 51.0653 6.34073 51.0287 6.33202 50.9913C6.32339 50.9661 6.31649 50.9405 6.31132 50.9144C6.18492 50.1052 6.32071 49.2768 6.69892 48.5501L6.76108 48.423L6.69595 48.4496C6.48819 48.5471 6.29975 48.6813 6.13968 48.8456L6.07756 48.9077C5.95533 49.0425 5.84819 49.1901 5.75802 49.3481C5.07156 48.5324 4.31705 45.506 5.02422 43.8983C5.28985 43.3335 5.67916 42.8356 6.16338 42.4413L6.29948 42.329C6.79544 41.9321 7.34412 41.6059 7.92982 41.3596L8.08961 41.2976L10.5691 35.1769L11.0632 35.2981C11.2792 35.3483 11.4953 35.3927 11.7113 35.437L11.9391 35.4813C11.9391 35.5641 11.9391 35.6793 11.9391 35.8241L12.0219 35.8714C14.8285 37.4939 18.0139 38.3482 21.2566 38.3481H21.3128C24.5598 38.3385 27.7466 37.4719 30.5504 35.836L30.6303 35.7887C30.6303 35.7059 30.6302 35.5286 30.6598 35.3808L30.7545 35.3631C31.0504 35.304 31.3463 35.239 31.6422 35.1651L34.0714 41.1527L34.1365 41.3123L34.2933 41.3744C34.7083 41.5482 35.1048 41.7631 35.4769 42.0157C35.5686 42.0807 35.6662 42.1487 35.7728 42.2196C36.3817 42.6582 36.8694 43.2439 37.1901 43.922ZM43.7321 37.6535C43.6966 37.7363 43.6582 37.819 43.6197 37.8988C43.0327 39.0036 42.1066 39.8913 40.9774 40.4316C39.902 40.9622 38.7562 41.3364 37.5747 41.5429C37.1989 41.6138 36.7788 41.6788 36.3912 41.732C35.8825 41.3284 35.3248 40.9908 34.7312 40.7272V40.7065L34.6987 40.6237L34.4028 39.8997L34.3703 39.8228L34.0478 39.0219L34.0182 38.951L33.9324 38.7382C35.0042 38.398 36.0231 37.9095 36.9593 37.2871C37.0867 37.4249 37.2343 37.5424 37.3972 37.6358L37.486 37.6861C37.9718 37.9317 38.5194 38.0284 39.0601 37.9639L39.0275 37.9461C38.9406 37.9041 38.8575 37.8546 38.779 37.7984L38.7494 37.7777C38.3667 37.6331 38.0069 37.434 37.6813 37.1866C36.8528 36.563 37.0037 35.3897 37.3854 34.5267C37.5873 34.0717 37.8941 33.6709 38.2808 33.357C38.6676 33.0432 39.1232 32.8252 39.6104 32.721H39.64C39.7406 32.7003 39.8412 32.6855 39.9359 32.6737C40.9057 32.584 41.8769 32.8292 42.6876 33.3682L42.7616 33.4185C43.1284 33.6555 43.4352 33.9742 43.658 34.3496C43.8808 34.7249 44.0135 35.1467 44.0458 35.5818C44.1116 36.2876 44.0039 36.9987 43.7321 37.6535Z" fill="black"/>
<path d="M5.48009 45.8222C5.52463 46.8836 5.71173 47.9343 6.03636 48.946C5.91485 49.0796 5.80867 49.2263 5.71977 49.3834C5.03036 48.5677 4.27585 45.5414 4.98302 43.9366C5.24964 43.3708 5.63993 42.8719 6.12514 42.4766C5.6622 43.5295 5.44176 44.6728 5.48009 45.8222Z" fill="#0630C9"/>
<path d="M38.7375 37.7776C38.3547 37.6331 37.995 37.434 37.6693 37.1866C36.8408 36.563 36.9917 35.3867 37.3734 34.5267C37.5755 34.0721 37.8825 33.6717 38.2692 33.3584C38.656 33.0451 39.1115 32.8276 39.5985 32.7239H39.6311C38.8055 33.1258 37.8025 33.9829 37.69 35.3513C37.6378 35.8118 37.707 36.278 37.8908 36.7036C38.0745 37.1291 38.3664 37.4994 38.7375 37.7776Z" fill="#0630C9"/>
<path d="M37.3853 37.6386L34.0062 38.9508L33.9204 38.7381C34.9933 38.4005 36.0125 37.9119 36.9473 37.2869C37.0766 37.4235 37.224 37.5418 37.3853 37.6386Z" fill="#0630C9"/>
<path d="M43.7145 37.6565C43.679 37.7392 43.6436 37.819 43.6021 37.9018C43.0143 39.0058 42.0885 39.8933 40.9599 40.4345C39.8844 40.9642 38.7385 41.3374 37.5572 41.5428C37.1814 41.6167 36.7612 41.6817 36.3736 41.732C35.8639 41.3299 35.3064 40.9924 34.7137 40.7271V40.7064L34.6782 40.6266C35.6842 40.7212 37.9655 40.866 39.4568 40.405C41.1203 39.937 42.6041 38.9792 43.7145 37.6565Z" fill="#E6E6E6"/>
<path d="M43.7143 37.6566C42.6055 38.9783 41.1239 39.9361 39.4624 40.4051C37.983 40.8661 35.6899 40.7213 34.6839 40.6267L34.388 39.8997L34.3584 39.8229C35.6796 39.7382 36.9815 39.4614 38.2227 39.0013C40.1548 38.2536 42.4627 36.6754 42.6817 33.386L42.7557 33.4392C43.1227 33.6753 43.4298 33.9934 43.6526 34.3683C43.8755 34.7432 44.008 35.1648 44.0398 35.5996C44.1002 36.3015 43.9884 37.0075 43.7143 37.6566Z" fill="white"/>
<path d="M18.7744 45.5591V45.6359H18.7505L18.7684 45.5591H18.7744Z" fill="black"/>
<path d="M30.0977 35.2063C29.8639 35.3423 29.6154 35.4782 29.355 35.6142C26.8611 36.908 24.0934 37.587 21.2832 37.5943H21.2269C18.4905 37.5955 15.7915 36.959 13.3445 35.7354C13.1285 35.629 12.9214 35.5196 12.7231 35.4132C12.7942 35.4339 14.8683 36.1107 19.428 36.2496H19.6321H19.8688H20.1854H20.5878H21.0761C26.8104 36.2732 30 35.2389 30.0977 35.2063Z" fill="white"/>
<path d="M40.2971 26.3579C40.2971 26.3579 40.2971 26.3579 40.2971 26.3756C40.1227 27.1709 39.8545 27.9427 39.4982 28.6749C37.7673 32.1386 34.2048 34.0951 30.5506 35.0852L30.1038 35.2034C30.0061 35.2359 26.8165 36.2703 21.094 36.2703H20.6058H19.8868H19.6501H19.446C14.8864 36.1314 12.8122 35.4546 12.7412 35.4339C12.4453 35.3689 12.1494 35.295 11.8535 35.2152C8.8355 34.3966 5.9358 32.9336 4.00366 30.4304C3.04876 29.2044 2.38052 27.7806 2.04785 26.2633V26.2456C2.73135 27.5016 4.16638 29.7566 6.3589 31.3111C9.61366 33.6193 16.5049 34.4379 21.4107 34.4379C26.4674 34.4379 33.3053 33.3415 36.0156 31.3111C37.7647 29.9675 39.2214 28.2822 40.2971 26.3579Z" fill="#E6E6E6"/>
<path d="M18.6201 47.2023V47.2851C17.8551 47.0173 17.0601 46.8446 16.253 46.7708C15.4998 46.7312 14.7474 46.8612 14.0513 47.1512C13.3553 47.4413 12.7335 47.884 12.2319 48.4465C12.2319 48.417 12.2111 48.3874 12.2023 48.3579C11.7377 46.9393 11.3916 45.5266 11.1933 44.7641C11.0957 44.3828 10.8974 43.6233 10.7939 43.245C10.5512 42.3584 10.2228 41.0639 9.90622 40.2098C9.87959 40.5704 9.92692 41.0314 9.93876 41.392C9.98906 42.051 10.0482 42.719 10.1192 43.3751C10.2107 44.434 10.3979 45.4825 10.6785 46.5078C10.7584 46.8033 10.856 47.1491 10.9744 47.5333L10.998 47.6161C10.495 47.5481 8.15751 47.3205 6.67512 48.5766C6.69287 48.5322 6.71357 48.4909 6.73428 48.4465L6.66919 48.4761C6.46048 48.5722 6.27099 48.7054 6.10996 48.8691L6.04784 48.9342C5.72321 47.9225 5.53611 46.8718 5.49157 45.8103C5.45324 44.661 5.67365 43.5177 6.13658 42.4648L6.27272 42.3525C6.77011 41.9592 7.31729 41.6333 7.90009 41.3831L8.05985 41.3211L10.5394 35.2034L11.0335 35.3216C11.2495 35.3718 11.4655 35.4191 11.6845 35.4605L11.9123 35.5048C11.9123 35.5876 11.9123 35.7028 11.9123 35.8477C11.9754 37.3963 12.2268 38.9316 12.6609 40.4197C13.0126 41.7171 13.6482 42.9203 14.522 43.9425C14.9811 44.4636 15.5447 44.8825 16.1762 45.1722C16.8078 45.4619 17.4932 45.6159 18.1881 45.6241H18.7502C18.6544 46.0977 18.6098 46.5803 18.6171 47.0634C18.6171 47.1166 18.6201 47.1727 18.6201 47.2023Z" fill="#143FFD"/>
<path d="M19.1499 51.6503C19.2961 50.6532 19.3673 49.6465 19.3629 48.6388V48.5796C19.9653 48.7762 20.5934 48.8828 21.227 48.8959H21.2803C21.7897 48.8714 22.2963 48.8062 22.7952 48.7008C22.8008 49.6905 22.8809 50.6785 23.0349 51.6562L19.1499 51.6503Z" fill="#143FFD"/>
<path d="M22.7952 48.2368C22.7952 48.3639 22.7952 48.4939 22.7952 48.624C22.7952 48.6506 22.7952 48.6772 22.7952 48.7038C22.2963 48.8091 21.7897 48.8744 21.2803 48.8988H21.227C20.5934 48.8857 19.9653 48.7792 19.3629 48.5826C19.3614 48.554 19.3614 48.5254 19.3629 48.4969C19.3629 48.3846 19.3629 48.2693 19.3629 48.1541C19.9184 47.9432 20.5057 47.8282 21.0998 47.8142C21.6812 47.7922 22.2613 47.8846 22.8071 48.0861L22.7952 48.2368Z" fill="#E6E6E6"/>
<path d="M30.6036 35.8271C30.577 36.9088 30.287 42.4117 26.9819 44.8292C26.9819 44.8292 25.9256 45.6567 23.5378 45.6567H23.4165C23.4165 45.6301 23.4165 45.6035 23.4165 45.5769L23.3958 45.4883H23.378L23.3248 45.5769C23.3248 45.6035 23.2982 45.6301 23.2834 45.6567C22.9444 46.3912 22.7843 47.1953 22.8159 48.0033C22.8144 48.0309 22.8144 48.0585 22.8159 48.0861C22.2701 47.8846 21.69 47.7922 21.1086 47.8142C20.5145 47.8282 19.9272 47.9432 19.3717 48.1541V48.0595C19.3481 47.1729 19.2711 46.2862 18.8214 45.4765H18.8036L18.7859 45.5474L18.7681 45.6242H18.2059C17.511 45.616 16.8256 45.462 16.1941 45.1723C15.5626 44.8827 14.999 44.4637 14.5399 43.9426C13.6661 42.9204 13.0304 41.7172 12.6788 40.4198C12.2447 38.9317 11.9933 37.3964 11.9302 35.8478L12.0101 35.8951C14.8169 37.5167 18.0021 38.371 21.2447 38.3717H21.3039C24.5508 38.3613 27.7374 37.4947 30.5415 35.8596L30.6036 35.8271Z" fill="white"/>
<path d="M25.1918 51.86C25.1212 52.1769 25.0087 52.483 24.8574 52.7703H24.8308C24.6434 52.7159 24.4712 52.6187 24.328 52.4863C24.1847 52.354 24.0742 52.1901 24.0053 52.0078C23.9801 51.9362 23.9594 51.8632 23.9432 51.7891C23.9432 51.7418 23.9254 51.6945 23.9136 51.6472C24.3335 51.7509 24.7609 51.822 25.1918 51.86Z" fill="#E6E6E6"/>
<path d="M27.1148 51.6296V51.6444C27.0687 52.0386 26.9461 52.4201 26.7539 52.7675C26.3381 52.8924 25.9023 52.9375 25.4697 52.9004C25.4979 52.5581 25.483 52.2136 25.4253 51.8749H25.6532C25.8745 51.8764 26.0955 51.8566 26.313 51.8158C26.5833 51.7676 26.851 51.7055 27.1148 51.6296Z" fill="#E6E6E6"/>
<path d="M28.9553 50.616C28.6594 51.2514 28.3102 51.9075 27.7717 52.3242C27.6877 52.3815 27.5985 52.431 27.5054 52.472L27.3841 52.5281C27.4053 52.2227 27.3804 51.9159 27.3101 51.6179V51.5647C27.9153 51.3589 28.4742 51.0366 28.9553 50.616Z" fill="#E6E6E6"/>
<path d="M36.4473 49.3864C36.3843 49.2743 36.312 49.1675 36.2313 49.0673C36.9186 47.7799 37.1282 46.2914 36.8231 44.8647C36.6752 43.919 36.3073 43.0212 35.749 42.2432C36.3633 42.6771 36.8572 43.2598 37.1841 43.9367C37.8912 45.5415 37.1367 48.5708 36.4473 49.3864Z" fill="#0630C9"/>
<path d="M36.2314 49.0674L36.1782 49.0023C36.1456 48.9639 36.1101 48.9255 36.0746 48.89C35.963 48.7766 35.8378 48.6773 35.7018 48.5945C35.6203 48.5439 35.5341 48.5013 35.4444 48.4674C34.6535 47.9181 33.7231 47.6035 32.7607 47.5601C32.172 47.5587 31.5855 47.6312 31.015 47.7759L31.0416 47.6902C31.157 47.2941 31.2635 46.8981 31.367 46.508C31.6364 45.4836 31.8518 44.4458 32.0121 43.3989C32.1888 42.3522 32.274 41.2922 32.2666 40.2307C31.8434 41.4631 31.5091 42.7694 31.083 44.0077C31.0238 44.191 30.9084 44.5752 30.8552 44.7584C30.5593 45.8637 30.2634 46.9809 29.9261 48.0773C29.9261 48.1039 29.9261 48.1305 29.9024 48.1571C29.0004 47.4556 27.9431 46.9803 26.8193 46.771C25.4966 46.5819 24.1563 47.1789 23.5201 47.5099V47.4212C23.5201 47.3119 23.5201 47.2025 23.5201 47.0961C23.5245 46.6209 23.487 46.1462 23.4077 45.6775H23.529C25.9168 45.6775 26.9613 44.8589 26.9731 44.85C30.2782 42.4325 30.5682 36.9295 30.5948 35.8479V35.8301C30.5948 35.7474 30.5948 35.573 30.6244 35.4252L30.722 35.4075C31.0179 35.3484 31.3138 35.2834 31.6097 35.2095L34.0359 41.2001L34.101 41.3567L34.2608 41.4188C34.6754 41.5933 35.0719 41.8081 35.4444 42.0601C35.5391 42.1222 35.6337 42.1902 35.7403 42.264C36.2986 43.042 36.6664 43.9398 36.8143 44.8855C37.1171 46.3046 36.9108 47.7848 36.2314 49.0674Z" fill="#143FFD"/>
<path d="M29.9054 48.1362C29.6619 48.9209 29.3724 49.6907 29.0385 50.4414C29.0089 50.5005 28.9823 50.5597 28.9556 50.6158C28.4707 51.0402 27.9066 51.3646 27.2957 51.5704C27.2892 51.5444 27.2813 51.5187 27.272 51.4936C27.218 51.3392 27.1347 51.1966 27.0265 51.0739C27.0883 51.2228 27.1195 51.3826 27.1182 51.5438C27.1196 51.5724 27.1196 51.6009 27.1182 51.6295C26.8544 51.7073 26.5868 51.7715 26.3163 51.8216C26.0988 51.8624 25.8778 51.8822 25.6565 51.8807H25.4287C25.4252 51.8539 25.4202 51.8272 25.4139 51.8009C25.4155 51.7911 25.4155 51.7812 25.4139 51.7714C25.3784 51.5973 25.3001 51.4348 25.186 51.2985C25.2384 51.4536 25.2486 51.6199 25.2156 51.7802C25.2121 51.8071 25.2072 51.8337 25.2008 51.86C24.7697 51.8191 24.3423 51.745 23.9226 51.6384L23.9048 51.5526C23.6416 50.2144 23.5167 48.8527 23.532 47.489C24.1563 47.158 25.5085 46.561 26.8312 46.7501C27.9519 46.9607 29.006 47.436 29.9054 48.1362Z" fill="#FAFBFB"/>
<path d="M34.6573 51.7152C34.645 51.8917 34.6223 52.0674 34.5893 52.2413C34.4605 52.2906 34.3291 52.333 34.1957 52.3683C33.8627 52.4537 33.5247 52.5189 33.1838 52.5634C33.1265 52.3887 33.0603 52.2171 32.9856 52.0492C32.9211 51.9113 32.849 51.7771 32.7695 51.6472C33.0395 51.7001 33.314 51.7268 33.5891 51.727C34.0152 51.727 34.3673 51.7211 34.6573 51.7152Z" fill="#E6E6E6"/>
<path d="M32.5923 52.6168C31.4752 52.7198 30.3564 52.4394 29.4204 51.8218C29.706 51.3282 29.9533 50.8134 30.1601 50.282C30.8279 50.9089 31.6414 51.3598 32.5272 51.5942C32.5354 51.6175 32.5423 51.6411 32.5479 51.6652C32.6055 51.9789 32.6204 52.2991 32.5923 52.6168Z" fill="#E6E6E6"/>
<path d="M35.477 51.6829C35.4126 51.7519 35.3424 51.8152 35.2669 51.872C35.2669 51.8129 35.2403 51.7538 35.2285 51.6977L35.477 51.6829Z" fill="#E6E6E6"/>
<path d="M35.5536 51.6061C35.5295 51.6351 35.5039 51.6627 35.4767 51.6888H35.2282C35.2282 51.6622 35.2282 51.6356 35.2045 51.609C35.1112 51.2426 34.954 50.8954 34.7399 50.5835C34.6197 50.4123 34.4592 50.2732 34.2725 50.1786C34.4116 50.3164 34.5134 50.4873 34.5683 50.6751C34.6541 50.9846 34.6871 51.3063 34.666 51.6268C34.6674 51.6533 34.6674 51.68 34.666 51.7066C34.3701 51.7066 34.0239 51.7066 33.5978 51.7066C33.3227 51.7063 33.0482 51.6796 32.7782 51.6268C32.7592 51.5951 32.7385 51.5645 32.7161 51.5352C32.6215 51.3984 32.4957 51.286 32.3492 51.2071C32.4213 51.2876 32.4757 51.3822 32.5089 51.4849C32.5205 51.5136 32.5295 51.5433 32.5356 51.5736C31.6498 51.3392 30.8363 50.8882 30.1685 50.2614L30.1981 50.1816C30.2868 49.9629 30.3697 49.7442 30.4525 49.5225C30.6636 48.9314 30.854 48.3404 31.0236 47.7493C31.5942 47.6046 32.1807 47.5321 32.7693 47.5335C33.7317 47.5769 34.6621 47.8915 35.453 48.4408C35.5602 48.6528 35.6521 48.872 35.7282 49.0969C36.0566 50.155 36.0566 51.015 35.5536 51.6061Z" fill="white"/>
<path d="M18.2563 51.7095C18.2563 51.7331 18.2563 51.7568 18.2415 51.7834C18.2259 51.8593 18.2062 51.9343 18.1823 52.008C18.1129 52.1988 17.9997 52.3706 17.8517 52.5097C17.7037 52.6488 17.525 52.7513 17.3302 52.8089C17.1726 52.5129 17.0533 52.1981 16.9751 51.8721C17.0875 51.8721 17.1911 51.8721 17.2888 51.8721C17.6189 51.8835 17.948 51.8282 18.2563 51.7095Z" fill="#E6E6E6"/>
<path d="M16.7031 52.9508C16.2853 52.9926 15.8632 52.9586 15.4574 52.8503C15.1851 52.4161 15.0471 51.9113 15.061 51.3992C15.6062 51.602 16.1701 51.7505 16.7446 51.8425C16.6789 52.2082 16.665 52.5812 16.7031 52.9508Z" fill="#E6E6E6"/>
<path d="M14.7915 52.6197L14.6288 52.5458C13.963 52.2709 13.3654 51.2956 12.8535 50.1016C13.4721 50.6451 14.1851 51.0708 14.9572 51.3577C14.7918 51.7565 14.7346 52.1918 14.7915 52.6197Z" fill="#E6E6E6"/>
<path d="M18.2861 51.6059C18.2861 51.6384 18.2861 51.6709 18.2654 51.7034C17.9581 51.8271 17.629 51.8875 17.2978 51.8807C17.2002 51.8807 17.0966 51.8807 16.9841 51.8807C16.9827 51.8532 16.9827 51.8255 16.9841 51.798C16.9566 51.6323 16.9667 51.4626 17.0137 51.3014C16.9033 51.44 16.8254 51.6016 16.7859 51.7743L16.7682 51.8511C16.1937 51.7591 15.6298 51.6106 15.0846 51.4078C15.0831 51.3813 15.0831 51.3546 15.0846 51.3281C15.099 51.2442 15.1218 51.162 15.1526 51.0827C15.0957 51.1491 15.0461 51.2215 15.0047 51.2985L14.9692 51.3665C14.1971 51.0795 13.4841 50.6538 12.8654 50.1104L12.7915 49.9302C12.5962 49.4573 12.4157 48.9578 12.25 48.4525C12.7516 47.8899 13.3734 47.4472 14.0695 47.1572C14.7655 46.8671 15.5179 46.7371 16.2711 46.7767C17.0782 46.8505 17.8732 47.0232 18.6381 47.291C18.6758 48.7377 18.5578 50.1843 18.2861 51.6059Z" fill="#FAFBFB"/>
<path d="M12.664 51.8809C11.7409 52.453 10.6572 52.7112 9.57497 52.6168C9.54074 52.289 9.55869 51.9578 9.62821 51.6356C10.4926 51.4696 11.3044 51.0987 11.9953 50.554C12.186 51.0118 12.4094 51.4553 12.664 51.8809Z" fill="#E6E6E6"/>
<path d="M9.3823 51.6739C9.21087 51.9507 9.07658 52.2488 8.98286 52.5605C8.642 52.5155 8.30408 52.4503 7.97091 52.3655C7.84072 52.33 7.70758 52.2887 7.57443 52.2384C7.57443 52.1852 7.55666 52.135 7.55074 52.0877C7.53003 51.9133 7.50934 51.7331 7.50342 51.5498C7.82758 51.6237 8.157 51.6721 8.48871 51.6946C8.59819 51.6946 8.7047 51.6946 8.80826 51.6946C8.99984 51.6999 9.19159 51.6929 9.3823 51.6739Z" fill="#E6E6E6"/>
<path d="M7.0215 51.4198C6.97416 51.5675 6.93569 51.7153 6.90314 51.869C6.64628 51.68 6.44743 51.4231 6.3291 51.1272C6.55119 51.2441 6.78284 51.342 7.0215 51.4198Z" fill="#E6E6E6"/>
<path d="M9.65766 51.5497C9.69445 51.4327 9.75266 51.3234 9.8293 51.2275C9.67473 51.3149 9.54294 51.4374 9.44463 51.5852C9.42061 51.6123 9.39978 51.642 9.38251 51.6738C9.19211 51.6978 9.00037 51.7096 8.80847 51.7093C8.70491 51.7093 8.5984 51.7093 8.48892 51.7093C8.15721 51.6867 7.82779 51.6383 7.50363 51.5645V51.4847C7.48128 51.2551 7.50451 51.0233 7.57204 50.8027C7.63957 50.5821 7.75007 50.3769 7.89715 50.1991C7.47832 50.4635 7.17501 50.8763 7.04795 51.3546L7.02426 51.4315C6.7855 51.3527 6.55389 51.2539 6.33189 51.1359C6.33189 51.1005 6.30527 51.065 6.29639 51.0296C6.28751 50.9941 6.29641 50.9763 6.27569 50.9527C6.15124 50.1432 6.28802 49.3151 6.66625 48.5884C8.14568 47.3264 10.4861 47.5599 10.9892 47.6279C11.2585 48.5968 11.5846 49.5491 11.9656 50.4798C11.9656 50.5035 11.9863 50.5301 11.9981 50.5537C11.3072 51.0985 10.4954 51.4694 9.63104 51.6354C9.63678 51.6059 9.6457 51.5772 9.65766 51.5497Z" fill="#FAFBFB"/>
<path d="M19.8836 9.3998C19.9102 9.51801 19.9339 9.63623 19.9575 9.75445C19.9427 9.67465 19.925 9.5919 19.9072 9.51211C19.8895 9.43231 19.8924 9.43822 19.8836 9.3998ZM19.8125 9.07471C19.8362 9.18111 19.8628 9.29045 19.8836 9.3998C19.8836 9.36138 19.8687 9.32591 19.8599 9.29045C19.851 9.25498 19.8273 9.14564 19.8125 9.07471Z" fill="#FF9600"/>
<path d="M23.8278 4.59741H24.1H23.8278ZM20.9162 4.55603H20.8452H20.5493H20.2327L19.6084 4.58854C20.9014 4.52056 22.3128 4.50283 23.7242 4.5708C23.2478 4.54716 22.7774 4.5324 22.3158 4.52648C21.8542 4.52057 21.3808 4.54717 20.9162 4.55603Z" fill="#FF9600"/>
<path d="M40.2347 20.6335C40.0645 19.8167 39.8401 19.012 39.563 18.2248C38.5925 15.4615 37.116 12.9583 35.5064 10.5053C36.0667 11.0411 36.5915 11.6127 37.0776 12.2165C37.1186 8.37098 36.2945 4.56536 34.6661 1.08054C34.625 0.993764 34.5513 0.92674 34.4609 0.894074C34.3706 0.861408 34.2709 0.86576 34.1838 0.906177C33.2422 1.34079 32.3291 1.83434 31.4498 2.38388C30.3671 3.06602 29.341 3.83393 28.3815 4.68021C28.818 4.92708 29.2389 5.20048 29.6419 5.49886C29.5561 5.47522 29.4703 5.44863 29.3816 5.42794L29.2987 5.40429L29.3786 5.43975C27.6801 4.9886 25.9403 4.71036 24.1858 4.60929H24.1H23.8278H23.739C23.3839 4.59155 23.0289 4.57973 22.6797 4.57086H22.3306H21.1943H20.9162H20.8452H20.5493H20.2327L19.6084 4.60339H19.3125L19.1143 4.61816H18.919H18.706L18.2888 4.65067H18.2059C16.4171 4.80009 14.6387 5.0547 12.8799 5.41316L12.9302 5.38952H12.8829L12.6876 5.43385C13.1009 5.1302 13.5317 4.85093 13.9777 4.59747C12.2431 3.07557 10.2978 1.81144 8.20197 0.844107C8.11482 0.803691 8.01519 0.799338 7.92484 0.832004C7.83449 0.86467 7.76075 0.931712 7.71968 1.01849C6.13346 4.41404 5.30941 8.11485 5.30524 11.8619C5.72497 11.3855 6.17568 10.9373 6.65446 10.5201C6.18992 11.1644 5.7402 11.8264 5.31412 12.5062C5.26382 12.583 5.21352 12.6628 5.16618 12.7426C3.68771 15.0506 2.63079 17.6022 2.04456 20.2789C2.04456 20.3084 2.04458 20.338 2.02979 20.3675C4.11395 22.0485 6.58187 23.1886 9.21389 23.6864C9.97561 23.8323 10.7492 23.9075 11.5248 23.911C13.1649 23.9478 14.7785 23.4939 16.1584 22.6077H16.1939C19.3781 21.4941 22.8385 21.4454 26.0528 22.4688H26.0824C27.2364 23.2372 28.7454 23.7692 30.7012 23.9672C30.9391 23.9909 31.1781 24.0028 31.4173 24.0027C34.3939 24.0027 37.7581 22.2678 40.2376 20.6601C40.2465 20.6896 40.2436 20.6631 40.2347 20.6335ZM7.57766 8.04938C7.48902 8.10505 7.38649 8.13474 7.28177 8.13508C7.19511 8.1349 7.10977 8.1136 7.03321 8.07302C6.94516 8.03054 6.87081 7.96429 6.81852 7.88176C6.76622 7.79924 6.73808 7.70373 6.73732 7.60607C6.74549 6.18589 6.9022 4.77046 7.20484 3.38281C7.31581 2.95655 7.49569 2.55126 7.73742 2.18291C7.80275 2.0825 7.88741 1.99605 7.98646 1.92857C8.08551 1.8611 8.19697 1.81394 8.31441 1.78984C8.55334 1.74006 8.80228 1.78682 9.00679 1.91988C9.49204 2.24202 10.0838 2.67646 10.646 3.10204C11.2082 3.52762 11.7408 3.96206 12.1254 4.26351C12.1837 4.30918 12.2299 4.36825 12.2603 4.43567C12.2907 4.50309 12.3044 4.57685 12.3 4.65067C12.2973 4.72424 12.2771 4.79612 12.2411 4.86036C12.2051 4.9246 12.1543 4.97934 12.0929 5.02009C11.1579 5.65846 8.8411 7.21595 7.57766 8.04938ZM10.359 13.9868C10.4093 13.2332 11.5159 12.6894 12.8208 12.778C14.1256 12.8667 15.1523 13.5465 15.102 14.3001C15.0759 14.4927 15.0007 14.6754 14.8836 14.8306C14.7665 14.9859 14.6115 15.1085 14.4333 15.1867C13.9632 15.4272 13.4405 15.547 12.9125 15.5354H12.6403C11.3325 15.4231 10.2968 14.7404 10.359 13.9868ZM16.0518 19.4839C16.0255 20.2432 15.7674 20.9764 15.3121 21.5851C15.1438 21.824 14.923 22.0212 14.6665 22.1616C14.4101 22.302 14.1248 22.3818 13.8327 22.3949H13.7499C13.4422 22.3671 13.1461 22.2637 12.888 22.0941C12.6299 21.9245 12.4178 21.6938 12.2704 21.4226C11.8854 20.7686 11.7089 20.0129 11.7644 19.2563C11.8532 17.5894 12.8888 16.3009 14.0694 16.3482C15.25 16.3955 16.1436 17.817 16.0518 19.4839ZM29.6212 21.4137C29.4739 21.685 29.2617 21.9156 29.0036 22.0852C28.7455 22.2549 28.4495 22.3582 28.1418 22.3861H28.0589C26.9109 22.3861 25.9226 21.1064 25.8339 19.4779C25.8339 19.3981 25.8339 19.3213 25.8339 19.2445C25.8339 17.6811 26.6919 16.3984 27.8193 16.3363C28.1268 16.334 28.4304 16.4065 28.7036 16.5476C28.9769 16.6886 29.2116 16.8941 29.3875 17.1461C29.8296 17.7608 30.0863 18.489 30.1272 19.2447C30.1681 20.0005 29.9915 20.7521 29.6183 21.4108L29.6212 21.4137ZM30.8965 15.0005C30.4018 15.3051 29.8377 15.479 29.2573 15.5059H28.9792C28.4906 15.5142 28.0063 15.4132 27.5618 15.2103C27.0914 14.9828 26.8192 14.6547 26.7955 14.2853C26.7718 13.9159 26.9967 13.5524 27.4317 13.2657C27.9272 12.9606 28.4923 12.7867 29.0738 12.7603C30.3816 12.6746 31.4853 13.2155 31.5356 13.9691C31.5622 14.3503 31.3344 14.7138 30.8965 15.0005ZM35.2105 8.13508C35.1058 8.13474 35.0033 8.10505 34.9146 8.04938C33.6571 7.21891 31.3344 5.65846 30.3965 5.02601C30.3351 4.98526 30.2842 4.9305 30.2482 4.86626C30.2122 4.80202 30.192 4.73016 30.1893 4.65658C30.185 4.58277 30.1986 4.509 30.229 4.44158C30.2594 4.37416 30.3057 4.31509 30.3639 4.26943C31.1036 3.67835 32.4972 2.55825 33.4707 1.90511C33.5714 1.83916 33.6841 1.79372 33.8024 1.77141C33.9208 1.74909 34.0423 1.75033 34.1601 1.77507C34.2776 1.79917 34.389 1.84632 34.4881 1.9138C34.5871 1.98128 34.6718 2.06771 34.7371 2.16812C34.9788 2.53647 35.1587 2.94178 35.2697 3.36803C35.5724 4.75569 35.729 6.17112 35.7372 7.59129C35.7364 7.68895 35.7083 7.78445 35.656 7.86697C35.6037 7.9495 35.5294 8.01577 35.4413 8.05825C35.3712 8.10102 35.2923 8.12728 35.2105 8.13508Z" fill="#143FFD"/>
<path d="M14.0695 16.3569C12.886 16.2949 11.8533 17.5982 11.7616 19.265C11.7057 20.0217 11.8822 20.7775 12.2676 21.4314C12.4156 21.7023 12.6278 21.9329 12.8858 22.1029C13.1437 22.2729 13.4394 22.3772 13.747 22.4066H13.8328C14.1251 22.3941 14.4106 22.3146 14.6671 22.1742C14.9237 22.0337 15.1444 21.8362 15.3122 21.5969C15.7658 20.9883 16.0237 20.2566 16.0519 19.4985C16.1377 17.8287 15.2501 16.4367 14.0695 16.3569ZM15.1199 18.9902C15.1066 19.2405 15.0281 19.4829 14.8921 19.6936C14.8463 19.7722 14.7818 19.8383 14.7045 19.8862C14.6271 19.9342 14.5391 19.9624 14.4483 19.9684H14.4216C14.0754 19.9448 13.8299 19.466 13.8654 18.9015C13.8787 18.6517 13.9583 18.41 14.0961 18.2011C14.1427 18.1174 14.211 18.0478 14.2937 17.9994C14.3765 17.9511 14.4708 17.9258 14.5666 17.9262C14.9098 17.9499 15.1584 18.4287 15.1199 18.9902Z" fill="black"/>
<path d="M15.1198 18.9903C15.1064 19.2406 15.0279 19.483 14.8919 19.6937C14.8461 19.7723 14.7817 19.8384 14.7043 19.8863C14.6269 19.9343 14.539 19.9625 14.4481 19.9685H14.4215C14.0753 19.9449 13.8297 19.4661 13.8652 18.9016C13.8786 18.6518 13.9582 18.4101 14.096 18.2012C14.1426 18.1175 14.2108 18.0479 14.2936 17.9995C14.3764 17.9512 14.4706 17.9259 14.5665 17.9263C14.9097 17.95 15.1582 18.4288 15.1198 18.9903Z" fill="white"/>
<path d="M15.0959 14.3146C15.0667 14.5039 14.9905 14.6829 14.8742 14.8352C14.7579 14.9875 14.6052 15.1083 14.4302 15.1865C13.9593 15.4246 13.437 15.5434 12.9093 15.5323H12.6342C11.3264 15.4466 10.3055 14.7609 10.3558 14.0073C10.4061 13.2537 11.5098 12.7099 12.8176 12.7985C14.1254 12.8872 15.1462 13.561 15.0959 14.3146Z" fill="white"/>
<path d="M12.3001 4.66838C12.2966 4.74251 12.2757 4.8148 12.2393 4.87946C12.2028 4.94412 12.1517 4.99935 12.09 5.04076C11.155 5.67026 8.83526 7.22775 7.57182 8.06117C7.48444 8.11994 7.38127 8.15086 7.27594 8.14985C7.18791 8.15 7.10129 8.12761 7.0244 8.08482C6.9368 8.04256 6.86273 7.97676 6.81047 7.8948C6.75821 7.81285 6.72982 7.71798 6.72852 7.62082C6.73569 6.20042 6.89342 4.78479 7.199 3.39756C7.30811 2.97066 7.48812 2.56507 7.73158 2.19767C7.79741 2.0973 7.88242 2.01088 7.9817 1.94334C8.08099 1.8758 8.1926 1.82846 8.3102 1.80403C8.42781 1.77961 8.54908 1.77858 8.6671 1.80098C8.78511 1.82339 8.89755 1.8688 8.99798 1.93463C9.48324 2.25381 10.075 2.68826 10.6372 3.11679C11.1994 3.54532 11.732 3.97681 12.1166 4.27826C12.1763 4.32378 12.2242 4.38302 12.2561 4.45092C12.2881 4.51883 12.3031 4.59341 12.3001 4.66838Z" fill="#0630C9"/>
<path d="M40.3146 21.0885C40.3146 21.0353 40.2968 20.9821 40.285 20.9289L40.2495 20.7427C37.7699 22.3504 34.4057 24.0853 31.4291 24.0853C31.1865 24.0853 30.9468 24.0734 30.7101 24.0498C28.7306 23.8518 27.2216 23.3109 26.0617 22.5307C22.8474 21.5073 19.3869 21.556 16.2027 22.6696C14.8167 23.5713 13.1903 24.0338 11.5366 23.9966C10.761 23.9932 9.98742 23.918 9.22573 23.772C6.59221 23.276 4.12285 22.1357 2.03862 20.4531C1.9068 21.1365 1.81785 21.8274 1.77232 22.5219C1.74865 22.9031 1.73978 23.2844 1.74274 23.6597V23.9345C1.74274 24.2478 1.77235 24.5581 1.8049 24.8625C1.8049 24.9542 1.82561 25.0458 1.83744 25.1374C1.86999 25.4063 1.91435 25.6723 1.96465 25.9353C1.98536 26.0299 2.00314 26.1215 2.02385 26.2132C2.70735 27.4692 4.14239 29.7242 6.33491 31.2787C9.58966 33.5869 16.4809 34.4055 21.3867 34.4055C26.4434 34.4055 33.2813 33.3091 35.9916 31.2787C37.7436 29.9435 39.2053 28.2663 40.2879 26.3491C40.3086 26.2604 40.3264 26.1688 40.3442 26.0772C40.6405 24.4265 40.6305 22.7355 40.3146 21.0885Z" fill="white"/>
<path d="M25.9491 28.0662C25.6181 28.5219 25.1375 28.8471 24.591 28.9853L24.4874 29.0119C24.1205 29.6799 23.079 31.1694 21.1291 31.0807C20.45 31.0442 19.7929 30.8275 19.2255 30.453C18.6581 30.0784 18.2009 29.5596 17.901 28.9499L17.8004 28.9203C17.3579 28.8138 16.9586 28.5747 16.6561 28.235C16.3536 27.8953 16.1623 27.4714 16.1079 27.02V26.9491C16.1079 26.8929 16.1079 26.8397 16.1079 26.7865C16.0994 26.575 16.1193 26.3633 16.1671 26.157C16.389 27.5017 17.0873 28.4622 18.4987 28.5213C18.9945 28.5538 19.4916 28.4812 19.9574 28.3085C20.1947 28.2123 20.4079 28.0653 20.5822 27.8779C20.7565 27.6905 20.8877 27.4673 20.9664 27.2239V27.2032L21.0078 25.8556C19.2088 25.7078 18.6792 23.9139 18.6792 23.9139C18.6792 23.9139 18.9011 22.7317 21.1706 22.7317C23.44 22.7317 23.7566 23.8459 23.7566 23.8459C23.7566 23.8459 23.2803 25.693 21.4842 25.8438L21.4635 27.1737C21.5606 27.4962 21.7429 27.7867 21.9912 28.0145C22.2396 28.2423 22.5449 28.399 22.8749 28.4682C23.0827 28.5234 23.2961 28.5551 23.511 28.5627C24.0025 28.6133 24.498 28.5198 24.9372 28.2938C25.1707 28.1576 25.3725 27.9732 25.529 27.7529C25.7316 27.5471 25.8959 27.307 26.0142 27.0436C26.146 26.7644 26.2281 26.4644 26.2568 26.157H26.2746C26.2746 26.2014 26.2746 26.2457 26.2924 26.293C26.3101 26.3402 26.2924 26.4467 26.3101 26.5265C26.334 27.0631 26.2091 27.5959 25.9491 28.0662Z" fill="white"/>
<path d="M23.7062 29.0799C23.542 29.0771 23.378 29.0653 23.2151 29.0444L22.9695 29.009C22.8044 28.9778 22.6421 28.9334 22.4842 28.876C21.9499 28.6981 21.496 28.3369 21.203 27.8564C21.1386 27.9665 21.0654 28.0713 20.9841 28.1696C20.3657 28.9026 19.3508 29.0858 18.4424 29.0119C18.2597 28.9995 18.0785 28.9708 17.9009 28.9262C18.2003 29.5363 18.6574 30.0555 19.2249 30.4301C19.7924 30.8047 20.4498 31.0212 21.1291 31.0571C23.079 31.1576 24.1175 29.668 24.4874 28.9883C24.2323 29.054 23.9696 29.0848 23.7062 29.0799ZM23.2092 29.8188C22.6697 30.3303 21.9528 30.6131 21.209 30.6079C20.4616 30.6089 19.7405 30.333 19.1851 29.8335L19.1673 29.8158V29.7892C19.3574 29.425 19.6457 29.1211 19.9998 28.9122C20.3538 28.7033 20.7594 28.5975 21.1705 28.607H21.1883C21.5982 28.5973 22.0029 28.6998 22.3587 28.9035C22.7144 29.1072 23.0075 29.4044 23.2062 29.7626V29.7863L23.2092 29.8188Z" fill="black"/>
<path d="M23.2181 29.7743C23.0194 29.4161 22.7263 29.119 22.3706 28.9153C22.0148 28.7116 21.6101 28.609 21.2001 28.6188H21.1824C20.7713 28.6093 20.3657 28.715 20.0117 28.9239C19.6576 29.1328 19.3693 29.4367 19.1792 29.8009V29.8275L19.197 29.8453C19.7524 30.3447 20.4735 30.6206 21.2209 30.6196C21.9647 30.6248 22.6816 30.342 23.2211 29.8305L23.2388 29.8098L23.2181 29.7743ZM22.7831 30.0699C22.3161 30.3778 21.7686 30.5412 21.209 30.5398C20.6522 30.54 20.1066 30.3833 19.6349 30.0876C19.6101 30.0736 19.5864 30.0578 19.5639 30.0403C19.5964 29.8453 19.774 28.9971 20.4338 28.9971C20.601 28.9887 20.7662 29.0365 20.903 29.133C21.0398 29.2294 21.1402 29.3688 21.1883 29.529C21.2389 29.3691 21.3401 29.2299 21.4767 29.1324C21.6133 29.0348 21.7779 28.9842 21.9458 28.9882C22.2024 29.0079 22.4414 29.1265 22.612 29.319C22.7826 29.5115 22.8716 29.7628 22.8601 30.0196L22.7831 30.0699Z" fill="#E2817A"/>
<path d="M22.8601 30.0079L22.7832 30.0581C22.3162 30.3661 21.7687 30.5295 21.2091 30.528C20.6523 30.5283 20.1067 30.3716 19.635 30.0759C19.6102 30.0618 19.5865 30.046 19.564 30.0286C19.5965 29.8335 19.7741 28.9853 20.4339 28.9853C20.6011 28.977 20.7663 29.0248 20.9031 29.1213C21.0399 29.2177 21.1403 29.3571 21.1884 29.5173C21.239 29.3574 21.3402 29.2182 21.4768 29.1206C21.6134 29.0231 21.778 28.9725 21.9459 28.9765C22.2025 28.9962 22.4414 29.1148 22.6121 29.3073C22.7827 29.4998 22.8717 29.751 22.8601 30.0079Z" fill="#FCA89F"/>
<path d="M25.949 28.0572C25.6169 28.5112 25.1366 28.8353 24.5909 28.9734C24.5571 28.985 24.5224 28.9939 24.4873 29C24.2317 29.0617 23.9689 29.0885 23.7061 29.0798C23.5419 29.077 23.3779 29.0652 23.215 29.0443L22.9694 29.0089C22.8043 28.9777 22.642 28.9332 22.4841 28.8759C21.9498 28.698 21.4959 28.3367 21.2029 27.8563C21.1385 27.9664 21.0653 28.0712 20.984 28.1695C20.3656 28.9025 19.3507 29.0857 18.4423 29.0118C18.2596 28.9994 18.0784 28.9707 17.9008 28.9261L17.8002 28.8995C17.2744 28.763 16.8116 28.4499 16.4895 28.0129C16.3084 27.7427 16.1846 27.4385 16.1256 27.1188C16.0665 26.7992 16.0736 26.4708 16.1462 26.1539C16.3681 27.4986 17.0664 28.4592 18.4778 28.5183C18.9736 28.5507 19.4707 28.4781 19.9365 28.3055C20.1738 28.2092 20.387 28.0622 20.5613 27.8748C20.7356 27.6874 20.8668 27.4642 20.9455 27.2208V27.2001L20.9869 25.8407C19.1879 25.6929 18.6583 23.899 18.6583 23.899C18.6583 23.899 18.8802 22.7168 21.1497 22.7168C23.4191 22.7168 23.7357 23.831 23.7357 23.831C23.7357 23.831 23.2564 25.6781 21.4633 25.8289L21.4397 27.1676C21.5374 27.4907 21.7202 27.7815 21.969 28.0098C22.2178 28.238 22.5234 28.3953 22.854 28.4651C23.0618 28.5203 23.2752 28.552 23.4901 28.5596C23.9816 28.6102 24.4772 28.5167 24.9163 28.2907C25.1499 28.1545 25.3516 27.9702 25.5081 27.7499C25.7107 27.5441 25.875 27.3039 25.9934 27.0406C26.1251 26.7613 26.2072 26.4613 26.236 26.1539H26.2537C26.3641 26.8046 26.257 27.4734 25.949 28.0572Z" fill="black"/>
<path d="M29.3787 5.44557C27.6802 4.99442 25.9404 4.71618 24.1858 4.61511H24.1001C23.6237 4.5826 23.1473 4.56486 22.6798 4.556H22.3307H21.1944H20.9163H20.8453H20.5494C20.4429 4.556 20.3364 4.556 20.2328 4.556C19.9162 4.556 19.6055 4.58556 19.3008 4.60329L19.1025 4.61807H18.9072H18.6942L18.277 4.65057H18.1941C16.4053 4.79999 14.6269 5.0546 12.8682 5.41307L12.9185 5.38942C15.6631 4.12062 18.662 3.49587 21.6856 3.56299C24.3075 3.66021 26.8849 4.26967 29.2722 5.35691L29.3787 5.44557Z" fill="#0630C9"/>
<path d="M30.1214 19.262C30.0936 18.5029 29.8356 17.7701 29.3817 17.1607C29.2066 16.9081 28.9719 16.7024 28.6985 16.5617C28.425 16.421 28.1211 16.3496 27.8135 16.3539C26.6891 16.413 25.8281 17.6956 25.8281 19.259C25.8281 19.3359 25.8281 19.4157 25.8281 19.4925C25.9139 21.1209 26.9051 22.4036 28.0502 22.4036H28.1331C28.4402 22.374 28.7356 22.2699 28.9934 22.1005C29.2512 21.931 29.4637 21.7013 29.6125 21.4313C29.9987 20.7766 30.1762 20.0199 30.1214 19.262ZM27.4584 19.9654H27.4288C27.0945 19.9654 26.7986 19.5339 26.7572 18.9871C26.7572 18.9458 26.7572 18.9073 26.7572 18.866C26.7572 18.3576 26.9939 17.9439 27.3164 17.9202C27.6389 17.8966 27.9733 18.334 28.0147 18.8985C28.0561 19.463 27.8105 19.9388 27.4584 19.9654Z" fill="black"/>
<path d="M27.4585 19.9655H27.4289C27.0946 19.9655 26.7987 19.534 26.7573 18.9872C26.7573 18.9459 26.7573 18.9074 26.7573 18.8661C26.7573 18.3577 26.994 17.944 27.3165 17.9203C27.639 17.8967 27.9734 18.3341 28.0148 18.8986C28.0562 19.4631 27.8106 19.9389 27.4585 19.9655Z" fill="white"/>
<path d="M30.8934 15.0123C30.3985 15.3187 29.8331 15.4927 29.2513 15.5177H28.9732C28.4848 15.5242 28.0009 15.4233 27.5559 15.2222C27.0854 14.9916 26.8132 14.6636 26.7896 14.2942C26.795 14.0826 26.8571 13.8764 26.9696 13.6971C27.082 13.5177 27.2404 13.3718 27.4286 13.2745C27.9232 12.97 28.4874 12.7961 29.0679 12.7692C30.3786 12.6835 31.4822 13.2243 31.5296 13.9809C31.5562 14.368 31.3284 14.7256 30.8934 15.0123Z" fill="white"/>
<path d="M35.7433 7.62082C35.7425 7.76088 35.6865 7.89499 35.5873 7.99403C35.4882 8.09307 35.3539 8.14907 35.2137 8.14985C35.1083 8.15086 35.0052 8.11994 34.9178 8.06117C33.6573 7.2307 31.3376 5.67026 30.3967 5.04076C30.3354 4.9992 30.2847 4.94387 30.2487 4.87919C30.2127 4.81452 30.1925 4.7423 30.1895 4.66838C30.1859 4.59466 30.1998 4.52113 30.2302 4.45383C30.2605 4.38653 30.3064 4.32738 30.3641 4.28122C31.1068 3.69014 32.4974 2.573 33.4709 1.93463C33.5713 1.8688 33.6838 1.82339 33.8018 1.80098C33.9198 1.77858 34.0411 1.77961 34.1587 1.80403C34.2763 1.82846 34.3879 1.8758 34.4872 1.94334C34.5865 2.01088 34.6715 2.0973 34.7373 2.19767C34.9808 2.56507 35.1608 2.97066 35.2699 3.39756C35.5778 4.78446 35.7365 6.20024 35.7433 7.62082Z" fill="#0630C9"/>
<path d="M21.5939 40.7332C21.0327 40.7332 20.4841 40.5669 20.0174 40.2555C19.5508 39.9441 19.1871 39.5014 18.9723 38.9835C18.7576 38.4656 18.7014 37.8958 18.8109 37.346C18.9204 36.7962 19.1906 36.2912 19.5874 35.8948C19.9843 35.4985 20.4899 35.2285 21.0403 35.1192C21.5908 35.0098 22.1613 35.0659 22.6798 35.2804C23.1983 35.495 23.6415 35.8582 23.9532 36.3243C24.265 36.7904 24.4315 37.3384 24.4315 37.8989C24.4307 38.6504 24.1315 39.3708 23.5995 39.9022C23.0675 40.4335 22.3462 40.7324 21.5939 40.7332Z" fill="black"/>
<path d="M21.5937 35.7383C21.1652 35.7383 20.7463 35.8653 20.3901 36.1031C20.0338 36.341 19.7562 36.679 19.5924 37.0745C19.4285 37.47 19.3858 37.9051 19.4696 38.3248C19.5534 38.7446 19.76 39.13 20.0632 39.4325C20.3664 39.7349 20.7526 39.9407 21.1729 40.0238C21.5933 40.107 22.0289 40.0637 22.4246 39.8995C22.8203 39.7353 23.1584 39.4576 23.396 39.1014C23.6336 38.7453 23.7602 38.3267 23.7596 37.8987C23.7588 37.3255 23.5303 36.776 23.1242 36.3709C22.7181 35.9658 22.1676 35.7383 21.5937 35.7383Z" fill="#143FFD"/>
</g>
<defs>
<clipPath id="clip0_301_2">
<rect width="44.93" height="56" fill="white"/>
</clipPath>
</defs>
</svg>
